HIERARCHY
ROOT hips
{
	OFFSET 0.000000 29.995300 -0.000000
	CHANNELS 6 Xposition Yposition Zposition Zrotation Yrotation Xrotation 
	JOINT Chest
	{
		OFFSET 0.000000 10.123600 0.695200
		CHANNELS 3 Zrotation Yrotation Xrotation
		JOINT Chest2
		{
			OFFSET 0.000000 15.405600 0.012300
			CHANNELS 3 Zrotation Yrotation Xrotation
			JOINT Chest3
			{
				OFFSET 0.000000 11.482400 -0.009100
				CHANNELS 3 Zrotation Yrotation Xrotation
				JOINT Neck
				{
					OFFSET 0.000000 25.678300 -0.023300
					CHANNELS 3 Zrotation Yrotation Xrotation
					JOINT Head
					{
						OFFSET 0.000000 13.458800 0.864200
						CHANNELS 3 Zrotation Yrotation Xrotation
						JOINT Head_End
						{
							OFFSET 0.000000 11.713200 -0.000000
							CHANNELS 3 Zrotation Yrotation Xrotation
							End Site
							{
								OFFSET 0.005000 0.000000 0.000000
							}
						}
					}
				}
				JOINT LeftCollar
				{
					OFFSET 12.227600 21.516500 -0.711700
					CHANNELS 3 Zrotation Yrotation Xrotation
					JOINT LeftShoulder
					{
						OFFSET 10.451400 0.021300 -0.002200
						CHANNELS 3 Zrotation Yrotation Xrotation
						JOINT LeftElbow
						{
							OFFSET 26.123400 0.000000 0.000000
							CHANNELS 3 Zrotation Yrotation Xrotation
							JOINT LeftWrist
							{
								OFFSET 25.245600 0.035600 0.002400
								CHANNELS 3 Zrotation Yrotation Xrotation
								JOINT Middle_00_L
								{
									OFFSET 11.653500 0.000000 0.000000
									CHANNELS 3 Zrotation Yrotation Xrotation
									JOINT Middle_01_L
									{
										OFFSET 4.384300 0.000000 0.000000
										CHANNELS 3 Zrotation Yrotation Xrotation
										JOINT Middle_02_L
										{
											OFFSET 3.470400 -0.000300 0.000000
											CHANNELS 3 Zrotation Yrotation Xrotation
											JOINT Middle_03_L
											{
												OFFSET 2.422200 0.000300 0.000000
												CHANNELS 3 Zrotation Yrotation Xrotation
												End Site
												{
													OFFSET 0.005000 0.000000 0.000000
												}
											}
										}
									}
								}
								JOINT Index_00_L
								{
									OFFSET 11.320700 0.000000 3.214800
									CHANNELS 3 Zrotation Yrotation Xrotation
									JOINT Index_01_L
									{
										OFFSET 3.752500 0.000000 0.000000
										CHANNELS 3 Zrotation Yrotation Xrotation
										JOINT Index_02_L
										{
											OFFSET 2.704900 0.000000 0.000300
											CHANNELS 3 Zrotation Yrotation Xrotation
											JOINT Index_03_L
											{
												OFFSET 2.288400 0.000000 -0.000300
												CHANNELS 3 Zrotation Yrotation Xrotation
												End Site
												{
													OFFSET 0.005000 0.000000 0.000000
												}
											}
										}
									}
								}
								JOINT Thumb_00_L
								{
									OFFSET 2.189000 0.000000 5.112700
									CHANNELS 3 Zrotation Yrotation Xrotation
									JOINT Thumb_01_L
									{
										OFFSET 5.672300 0.000000 0.000000
										CHANNELS 3 Zrotation Yrotation Xrotation
										JOINT Thumb_02_L
										{
											OFFSET 3.353600 0.000000 0.000400
											CHANNELS 3 Zrotation Yrotation Xrotation
											JOINT Thumb_03_L
											{
												OFFSET 3.066600 0.000000 -0.000400
												CHANNELS 3 Zrotation Yrotation Xrotation
												End Site
												{
													OFFSET 0.005000 0.000000 0.000000
												}
											}
										}
									}
								}
								JOINT Ring_00_L
								{
									OFFSET 11.421100 0.000000 -3.087400
									CHANNELS 3 Zrotation Yrotation Xrotation
									JOINT Ring_01_L
									{
										OFFSET 4.107700 0.000000 0.000000
										CHANNELS 3 Zrotation Yrotation Xrotation
										JOINT Ring_02_L
										{
											OFFSET 2.971800 0.000000 0.000500
											CHANNELS 3 Zrotation Yrotation Xrotation
											JOINT Ring_03_L
											{
												OFFSET 2.159200 0.000000 -0.000500
												CHANNELS 3 Zrotation Yrotation Xrotation
												End Site
												{
													OFFSET 0.005000 0.000000 0.000000
												}
											}
										}
									}
								}
								JOINT Little_00_L
								{
									OFFSET 10.838200 0.000000 -5.836000
									CHANNELS 3 Zrotation Yrotation Xrotation
									JOINT Little_01_L
									{
										OFFSET 3.568800 0.000000 0.000000
										CHANNELS 3 Zrotation Yrotation Xrotation
										JOINT Little_02_L
										{
											OFFSET 2.336100 0.000000 0.000200
											CHANNELS 3 Zrotation Yrotation Xrotation
											JOINT Little_03_L
											{
												OFFSET 1.912900 0.000000 -0.000200
												CHANNELS 3 Zrotation Yrotation Xrotation
												End Site
												{
													OFFSET 0.005000 0.000000 0.000000
												}
											}
										}
									}
								}
							}
						}
					}
				}
				JOINT RightCollar
				{
					OFFSET -12.227600 21.516500 -0.711700
					CHANNELS 3 Zrotation Yrotation Xrotation
					JOINT RightShoulder
					{
						OFFSET -10.451300 0.021300 -0.002200
						CHANNELS 3 Zrotation Yrotation Xrotation
						JOINT RightElbow
						{
							OFFSET -26.123400 0.000000 0.000000
							CHANNELS 3 Zrotation Yrotation Xrotation
							JOINT RightWrist
							{
								OFFSET -25.245800 0.035400 0.002000
								CHANNELS 3 Zrotation Yrotation Xrotation
								JOINT Middle_00_R
								{
									OFFSET -11.654000 0.000000 0.000000
									CHANNELS 3 Zrotation Yrotation Xrotation
									JOINT Middle_01_R
									{
										OFFSET -4.408600 0.000000 0.000000
										CHANNELS 3 Zrotation Yrotation Xrotation
										JOINT Middle_02_R
										{
											OFFSET -3.470400 0.000000 0.000000
											CHANNELS 3 Zrotation Yrotation Xrotation
											JOINT Middle_03_R
											{
												OFFSET -2.422200 0.000000 0.000000
												CHANNELS 3 Zrotation Yrotation Xrotation
												End Site
												{
													OFFSET 0.005000 0.000000 0.000000
												}
											}
										}
									}
								}
								JOINT Ring_00_R
								{
									OFFSET -11.459300 0.000000 -3.067300
									CHANNELS 3 Zrotation Yrotation Xrotation
									JOINT Ring_01_R
									{
										OFFSET -4.107700 0.000000 0.000000
										CHANNELS 3 Zrotation Yrotation Xrotation
										JOINT Ring_02_R
										{
											OFFSET -2.971800 0.000000 0.000000
											CHANNELS 3 Zrotation Yrotation Xrotation
											JOINT Ring_03_R
											{
												OFFSET -2.159200 0.000000 0.000000
												CHANNELS 3 Zrotation Yrotation Xrotation
												End Site
												{
													OFFSET 0.005000 0.000000 0.000000
												}
											}
										}
									}
								}
								JOINT Little_00_R
								{
									OFFSET -10.887000 0.000000 -5.818300
									CHANNELS 3 Zrotation Yrotation Xrotation
									JOINT Little_01_R
									{
										OFFSET -3.568800 0.000000 0.000000
										CHANNELS 3 Zrotation Yrotation Xrotation
										JOINT Little_02_R
										{
											OFFSET -2.336100 0.000000 0.000000
											CHANNELS 3 Zrotation Yrotation Xrotation
											JOINT Little_03_R
											{
												OFFSET -1.912900 0.000000 0.000000
												CHANNELS 3 Zrotation Yrotation Xrotation
												End Site
												{
													OFFSET 0.005000 0.000000 0.000000
												}
											}
										}
									}
								}
								JOINT Index_00_R
								{
									OFFSET -11.333200 0.000000 3.234400
									CHANNELS 3 Zrotation Yrotation Xrotation
									JOINT Index_01_R
									{
										OFFSET -3.752500 0.000000 0.000000
										CHANNELS 3 Zrotation Yrotation Xrotation
										JOINT Index_02_R
										{
											OFFSET -2.704900 0.000000 0.000000
											CHANNELS 3 Zrotation Yrotation Xrotation
											JOINT Index_03_R
											{
												OFFSET -2.288400 0.000000 0.000000
												CHANNELS 3 Zrotation Yrotation Xrotation
												End Site
												{
													OFFSET 0.005000 0.000000 0.000000
												}
											}
										}
									}
								}
								JOINT Thumb_00_R
								{
									OFFSET -2.193600 -0.231700 5.095700
									CHANNELS 3 Zrotation Yrotation Xrotation
									JOINT Thumb_01_R
									{
										OFFSET -5.672200 0.231700 0.000000
										CHANNELS 3 Zrotation Yrotation Xrotation
										JOINT Thumb_02_R
										{
											OFFSET -3.353600 0.000000 0.000000
											CHANNELS 3 Zrotation Yrotation Xrotation
											JOINT Thumb_03_R
											{
												OFFSET -3.066500 0.000000 0.000000
												CHANNELS 3 Zrotation Yrotation Xrotation
												End Site
												{
													OFFSET 0.005000 0.000000 0.000000
												}
											}
										}
									}
								}
							}
						}
					}
				}
			}
		}
	}
	JOINT LeftHip
	{
		OFFSET 6.356900 0.000000 0.000000
		CHANNELS 3 Zrotation Yrotation Xrotation
		JOINT LeftKnee
		{
			OFFSET -0.000100 -37.930500 0.000000
			CHANNELS 3 Zrotation Yrotation Xrotation
			JOINT LeftAnkle
			{
				OFFSET -0.000100 -42.440200 -0.085400
				CHANNELS 3 Zrotation Yrotation Xrotation
				JOINT LeftToe
				{
					OFFSET 0.135400 -9.338000 13.882500
					CHANNELS 3 Zrotation Yrotation Xrotation
					End Site
					{
						OFFSET 0.005000 0.000000 0.000000
					}
				}
			}
		}
	}
	JOINT RightHip
	{
		OFFSET -6.356900 0.000000 0.000000
		CHANNELS 3 Zrotation Yrotation Xrotation
		JOINT RightKnee
		{
			OFFSET 0.000100 -37.930500 0.000000
			CHANNELS 3 Zrotation Yrotation Xrotation
			JOINT RightAnkle
			{
				OFFSET 0.000100 -42.440200 -0.085400
				CHANNELS 3 Zrotation Yrotation Xrotation
				JOINT RightToe
				{
					OFFSET -0.135400 -9.338000 13.882500
					CHANNELS 3 Zrotation Yrotation Xrotation
					End Site
					{
						OFFSET 0.005000 0.000000 0.000000
					}
				}
			}
		}
	}
}
MOTION
Frames: 5
Frame Time: 0.041667
0.000000 89.700000 0.000000 0.000000 0.000000 0.000000 -0.537666 1.507902 -3.207782 0.710769 -1.702262 1.814398 -0.755435 0.289437 2.475147 -0.232943 0.738753 -0.649642 -1.183005 -3.761027 1.353724 0.000000 0.000000 0.000000 -23.890959 -5.791608 0.608588 -46.319889 -6.001710 17.535704 -8.969959 -32.335053 19.660838 -12.254964 23.657264 -10.296927 -39.690285 18.181068 -15.000000 -30.838001 0.000000 0.000000 -22.846259 0.000000 0.000000 0.022390 -0.001199 4.934506 -29.569349 11.574954 -15.000000 -23.257970 0.000000 0.000000 -33.856429 0.000000 0.000000 2.447046 -0.079831 2.056764 -30.148365 -17.622247 120.000000 -27.112739 0.000000 0.000000 15.000000 0.000000 0.000000 4.260386 -0.094452 1.375350 -32.544674 -4.858293 15.000000 -40.217080 0.000000 0.000000 -24.798740 0.000000 0.000000 -6.917769 0.291382 2.291170 -31.540713 3.478312 4.047019 -34.857091 0.000000 0.000000 -29.181648 0.000000 0.000000 0.441624 -0.014543 2.538997 25.456839 9.280356 1.515716 49.305863 4.443575 18.154993 1.902951 30.454365 3.808591 0.732383 -24.616894 7.270995 37.345427 -6.835567 -1.983404 44.017833 0.000000 0.000000 27.174049 0.000000 0.000000 -7.969741 -5.107087 -8.050663 35.236698 6.481283 14.007480 50.301335 0.000000 0.000000 30.436394 0.000000 0.000000 6.271931 -1.933901 -4.817211 38.582348 17.824201 15.000000 39.949517 0.000000 0.000000 31.001904 0.000000 0.000000 -1.013052 -2.505694 -6.799366 31.987059 -9.865139 -15.000000 25.634186 0.000000 0.000000 36.034677 0.000000 0.000000 -3.109834 -2.403556 -3.139792 36.026392 15.103094 120.000000 27.075969 0.000000 0.000000 -15.000000 0.000000 0.000000 -4.610124 -2.491975 -2.359596 0.000000 0.000000 0.000000 0.000000 0.000000 0.000000 0.000000 0.000000 0.000000 0.000000 0.000000 0.000000 0.000000 0.000000 0.000000 0.000000 0.000000 0.000000 0.000000 0.000000 0.000000 0.000000 0.000000 0.000000 
0.000000 89.700000 0.000000 0.000000 0.000000 0.000000 -0.559634 1.683399 -3.200636 0.695511 -1.679415 1.777804 -0.745738 0.302641 2.479211 -0.221182 0.772515 -0.763964 -1.172374 -3.759889 1.320753 0.000000 0.000000 0.000000 -23.872924 -5.882570 0.547541 -46.326338 -5.992828 17.554055 -8.995516 -32.285691 19.706835 -12.006024 23.490272 -9.816998 -40.330744 18.289323 -15.000000 -30.681038 0.000000 0.000000 -22.923044 0.000000 0.000000 0.022390 -0.001199 4.934506 -30.065861 11.751548 -15.000000 -23.127064 0.000000 0.000000 -33.873667 0.000000 0.000000 2.447046 -0.079831 2.056764 -30.298959 -17.443569 120.000000 -27.050906 0.000000 0.000000 15.000000 0.000000 0.000000 4.260386 -0.094452 1.375350 -33.189714 -4.652916 14.991996 -40.068694 0.000000 0.000000 -24.921519 0.000000 0.000000 -6.917769 0.291382 2.291170 -32.486344 3.235864 3.976768 -34.181793 0.000000 0.000000 -28.901557 0.000000 0.000000 0.441624 -0.014543 2.538997 25.441327 9.302463 1.570844 49.276077 4.436483 18.197638 2.071277 30.341738 3.923847 0.664070 -24.362405 6.865105 37.960967 -7.096165 -1.645655 43.677356 0.000000 0.000000 27.126012 0.000000 0.000000 -7.969741 -5.107087 -8.050663 35.672317 6.273055 14.382549 50.436067 0.000000 0.000000 30.289180 0.000000 0.000000 6.271931 -1.933901 -4.817211 39.203814 17.380058 15.000000 39.872796 0.000000 0.000000 31.144784 0.000000 0.000000 -1.013052 -2.505694 -6.799366 32.991079 -10.334498 -15.000000 25.045879 0.000000 0.000000 35.791288 0.000000 0.000000 -3.109834 -2.403556 -3.139792 36.235876 14.930034 120.000000 27.293913 0.000000 0.000000 -15.000000 0.000000 0.000000 -4.610124 -2.491975 -2.359596 0.000000 0.000000 0.000000 0.000000 0.000000 0.000000 0.000000 0.000000 0.000000 0.000000 0.000000 0.000000 0.000000 0.000000 0.000000 0.000000 0.000000 0.000000 0.000000 0.000000 0.000000 0.000000 0.000000 0.000000 
0.000000 89.700000 0.000000 0.000000 0.000000 0.000000 -0.573822 1.841759 -3.194437 0.675339 -1.653886 1.738631 -0.734565 0.316369 2.487230 -0.211474 0.802093 -0.869684 -1.161845 -3.749377 1.279950 0.000000 0.000000 0.000000 -23.860928 -5.963190 0.492545 -46.327185 -5.985799 17.566398 -9.016739 -32.241055 19.743202 -11.831952 23.381951 -9.364858 -40.286147 18.304212 -15.000000 -30.549285 0.000000 0.000000 -22.920931 0.000000 0.000000 0.022390 -0.001199 4.934506 -30.188632 11.878178 -15.000000 -23.066800 0.000000 0.000000 -33.835609 0.000000 0.000000 2.447046 -0.079831 2.056764 -30.424315 -17.360884 120.000000 -27.012406 0.000000 0.000000 15.000000 0.000000 0.000000 4.260386 -0.094452 1.375350 -33.302958 -4.528007 14.970587 -39.900811 0.000000 0.000000 -24.932468 0.000000 0.000000 -6.917769 0.291382 2.291170 -32.974154 2.931642 3.968656 -33.627732 0.000000 0.000000 -28.603862 0.000000 0.000000 0.441624 -0.014543 2.538997 25.422997 9.323183 1.622712 49.258813 4.429962 18.233674 2.267394 30.230265 4.080089 0.681022 -24.197588 6.463214 37.852568 -7.279337 -1.347613 43.467048 0.000000 0.000000 27.099240 0.000000 0.000000 -7.969741 -5.107087 -8.050663 35.725157 6.152487 14.662853 50.612434 0.000000 0.000000 30.179719 0.000000 0.000000 6.271931 -1.933901 -4.817211 39.125673 17.156796 15.000000 39.907531 0.000000 0.000000 31.269808 0.000000 0.000000 -1.013052 -2.505694 -6.799366 32.929478 -10.671065 -15.000000 24.612974 0.000000 0.000000 35.591954 0.000000 0.000000 -3.109834 -2.403556 -3.139792 36.383034 14.742852 120.000000 27.400479 0.000000 0.000000 -15.000000 0.000000 0.000000 -4.610124 -2.491975 -2.359596 0.000000 0.000000 0.000000 0.000000 0.000000 0.000000 0.000000 0.000000 0.000000 0.000000 0.000000 0.000000 0.000000 0.000000 0.000000 0.000000 0.000000 0.000000 0.000000 0.000000 0.000000 0.000000 0.000000 0.000000 
0.000000 89.700000 0.000000 0.000000 0.000000 0.000000 -0.576379 1.971748 -3.189726 0.649697 -1.625423 1.698515 -0.721929 0.330573 2.499523 -0.203507 0.826277 -0.959786 -1.152878 -3.727298 1.231870 0.000000 0.000000 0.000000 -23.855376 -6.028269 0.447952 -46.322431 -5.981680 17.570663 -9.031553 -32.202713 19.764299 -11.773550 23.367430 -8.962337 -40.257670 18.165158 -15.000000 -30.470031 0.000000 0.000000 -22.825999 0.000000 0.000000 0.022390 -0.001199 4.934506 -30.388465 11.914309 -15.000000 -23.125315 0.000000 0.000000 -33.738524 0.000000 0.000000 2.447046 -0.079831 2.056764 -30.511444 -17.416837 120.000000 -27.022211 0.000000 0.000000 15.000000 0.000000 0.000000 4.260386 -0.094452 1.375350 -33.403123 -4.524870 14.918301 -39.732387 0.000000 0.000000 -24.791741 0.000000 0.000000 -6.917769 0.291382 2.291170 -33.390645 2.532546 4.038618 -33.304579 0.000000 0.000000 -28.278765 0.000000 0.000000 0.441624 -0.014543 2.538997 25.400208 9.342080 1.667958 49.261047 4.425195 18.258794 2.355957 30.208427 4.147075 0.793754 -24.137608 6.074065 37.908914 -7.368642 -1.062969 43.460410 0.000000 0.000000 27.139958 0.000000 0.000000 -7.969741 -5.107087 -8.050663 35.700387 6.140530 14.821261 50.844294 0.000000 0.000000 30.150913 0.000000 0.000000 6.271931 -1.933901 -4.817211 38.975433 17.235007 15.000000 40.070511 0.000000 0.000000 31.393509 0.000000 0.000000 -1.013052 -2.505694 -6.799366 32.787818 -10.878935 -15.000000 24.399874 0.000000 0.000000 35.493449 0.000000 0.000000 -3.109834 -2.403556 -3.139792 36.427751 14.525335 120.000000 27.352031 0.000000 0.000000 -15.000000 0.000000 0.000000 -4.610124 -2.491975 -2.359596 0.000000 0.000000 0.000000 0.000000 0.000000 0.000000 0.000000 0.000000 0.000000 0.000000 0.000000 0.000000 0.000000 0.000000 0.000000 0.000000 0.000000 0.000000 0.000000 0.000000 0.000000 0.000000 0.000000 0.000000 
0.000000 89.700000 0.000000 0.000000 0.000000 0.000000 -0.568410 2.067831 -3.185594 0.623016 -1.596591 1.661792 -0.709141 0.344563 2.512693 -0.196038 0.845546 -1.031197 -1.147271 -3.698902 1.185914 0.000000 0.000000 0.000000 -23.850926 -6.078581 0.416064 -46.317857 -5.979845 17.568786 -9.040200 -32.168736 19.768275 -11.837863 23.444645 -8.622851 -40.166911 17.875440 -15.000000 -30.475103 0.000000 0.000000 -22.681692 0.000000 0.000000 0.022390 -0.001199 4.934506 -30.388188 11.854687 -15.000000 -23.321779 0.000000 0.000000 -33.621627 0.000000 0.000000 2.447046 -0.079831 2.056764 -30.558841 -17.599839 120.000000 -27.099642 0.000000 0.000000 15.000000 0.000000 0.000000 4.260386 -0.094452 1.375350 -33.287799 -4.639358 14.821346 -39.610484 0.000000 0.000000 -24.532411 0.000000 0.000000 -6.917769 0.291382 2.291170 -33.136654 2.042802 4.157438 -33.281726 0.000000 0.000000 -27.932297 0.000000 0.000000 0.441624 -0.014543 2.538997 25.373472 9.360066 1.703311 49.281518 4.423342 18.271644 2.333358 30.074707 4.115489 0.962986 -24.140139 5.713713 38.590362 -7.403803 -0.720944 43.673867 0.000000 0.000000 27.293081 0.000000 0.000000 -7.969741 -5.107087 -8.050663 36.121530 6.188784 14.895501 51.106582 0.000000 0.000000 30.222081 0.000000 0.000000 6.271931 -1.933901 -4.817211 39.616406 17.519426 15.000000 40.296789 0.000000 0.000000 31.540635 0.000000 0.000000 -1.013052 -2.505694 -6.799366 32.813350 -11.058403 -15.000000 24.382140 0.000000 0.000000 35.536581 0.000000 0.000000 -3.109834 -2.403556 -3.139792 36.367587 14.268949 120.000000 27.180956 0.000000 0.000000 -15.000000 0.000000 0.000000 -4.610124 -2.491975 -2.359596 0.000000 0.000000 0.000000 0.000000 0.000000 0.000000 0.000000 0.000000 0.000000 0.000000 0.000000 0.000000 0.000000 0.000000 0.000000 0.000000 0.000000 0.000000 0.000000 0.000000 0.000000 0.000000 0.000000 0.000000 
